<svg id="Layer_1" data-name="Layer 1" xmlns="http://www.w3.org/2000/svg" xmlns:xlink="http://www.w3.org/1999/xlink" viewBox="0 0 221 102"><defs><style>.cls-1{fill:#fff;}.cls-2{fill:#f26722;}.cls-3{fill:url(#linear-gradient);}</style><linearGradient id="linear-gradient" x1="15.01521" y1="79.29943" x2="15.01521" y2="21.10339" gradientUnits="userSpaceOnUse"><stop offset="0" stop-color="#ee3424"/><stop offset="1" stop-color="#f26722"/></linearGradient></defs><rect class="cls-1" x="36.83138" y="1.86232" width="10.87699" height="10.87699" rx="0.60191"/><rect class="cls-2" x="16.39659" y="1.86232" width="10.87699" height="10.87699" rx="0.60191"/><path class="cls-3" d="M11.82,80.67721A25.97607,25.97607,0,0,1,3.151,79.027a.60654.60654,0,0,1-.363-.781l3.38457-9.06262a.60433.60433,0,0,1,.76814-.35407c3.39745,1.182,6.1081,1.3022,7.48909.32,1.32511-.94241,2.04269-3.37487,1.96833-6.67479l-.00147-.12274V19.08461a.60191.60191,0,0,1,.60191-.60192h9.67316a.60191.60191,0,0,1,.60191.60192V62.29338c.1856,9.01577-3.45275,13.52542-6.542,15.72124A15.03836,15.03836,0,0,1,11.82,80.67721Z"/><rect class="cls-1" x="36.83138" y="18.48269" width="10.87699" height="44.11518" rx="0.60191"/><path class="cls-1" d="M207.23032,18.91079l-5.649,18.01437a.61067.61067,0,0,1-1.15235.03727L192.8285,17.2811a.61413.61413,0,0,0-.5729-.39289H189.467a.61413.61413,0,0,0-.5729.39289l-7.60046,19.68133a.61067.61067,0,0,1-1.15235-.03727l-5.649-18.01437a.61066.61066,0,0,0-.58268-.42794h-9.93545a.61066.61066,0,0,0-.58175.79634l13.69088,42.89522a.6085.6085,0,0,0,.57968.42347h2.39254a.60851.60851,0,0,0,.55938-.369L190.24514,39.736a.61066.61066,0,0,1,1.12275,0l9.63028,22.49293a.60849.60849,0,0,0,.55937.369h2.39254a.6085.6085,0,0,0,.57968-.42347l13.69089-42.89522a.61066.61066,0,0,0-.58175-.79634H207.813A.61066.61066,0,0,0,207.23032,18.91079Z"/><path class="cls-1" d="M124.39375,24.60216a.60966.60966,0,0,0,.0315-.88978c-4.79681-4.77187-8.86617-6.55907-13.43832-6.55907-4.13434,0-7.47085,1.24013-9.91687,3.68645a12.61494,12.61494,0,0,0-3.68763,9.26332,12.088,12.088,0,0,0,2.12913,7.20884,23.636,23.636,0,0,0,6.63112,5.80643l4.9127,2.94762c2.35456,1.31684,3.54836,2.76675,3.54836,4.30931,0,2.06688-1.18318,3.07155-3.61681,3.07155-2.027,0-5.29308-2.25243-7.56864-4.35085a.60936.60936,0,0,0-.85262.01919L96.47237,55.41a.60711.60711,0,0,0-.00068.84809c3.96267,3.99717,9.74974,7.28558,14.51524,7.28558a14.61885,14.61885,0,0,0,10.23553-3.78676,12.65335,12.65335,0,0,0,4.132-9.70856,11.46558,11.46558,0,0,0-2.29555-6.99551,26.32229,26.32229,0,0,0-7.21828-6.12362L110.92143,33.76c-1.922-1.09732-2.89628-2.40118-2.89628-3.875a2.38491,2.38491,0,0,1,.82261-1.89515,3.28763,3.28763,0,0,1,2.24893-.74059c1.5798,0,3.12465.64368,5.86209,3.09448a.61078.61078,0,0,0,.807.01113Z"/><path class="cls-1" d="M90.72605,40.34879c0-13.15542-7.865-23.46058-17.90526-23.46058a14.20582,14.20582,0,0,0-1.93.14468v-.01361c-.1434.01929-.28454.047-.4268.07049-.07457.01246-.14956.02327-.2238.03692a14.49417,14.49417,0,0,0-2.27109.60866l-.03515.011v.00144c-7.59042,2.72294-13.01778,11.6753-13.01778,22.601,0,10.92582,5.42729,19.87878,13.01778,22.60187v.00007l.00114.00037a14.49677,14.49677,0,0,0,2.34.627c.0467.00845.09387.01476.14067.02276q.48651.08221.98173.13071c.0904.00907.18047.01885.27123.02622.38052.03028.76328.05087,1.15062.05094l.00154.00007h.00059a14.4,14.4,0,0,0,3.65137-.46847l.01317-.00388q.43368-.11385.85913-.2536c.078-.02571.15395-.05728.23151-.08424.209-.07273.41817-.145.62386-.22708.06713-.02678.13226-.05868.199-.08645.2137-.08889.42728-.17818.63721-.277.07037-.03316.13861-.07152.20854-.10575.20252-.09913.40511-.198.60387-.30627v.60185c0,3.70238-1.84588,6.77923-4.70322,7.83967-3.12793,1.16138-6.84842-.33832-10.27481-4.11509a.60635.60635,0,0,0-.84541-.05934l-7.32627,6.30769a.61041.61041,0,0,0-.0589.86544c4.82389,5.39608,10.62475,8.2713,16.34971,8.2713a16.99411,16.99411,0,0,0,5.94068-1.07283c7.16517-2.65905,11.79521-9.73924,11.79521-18.03684V41.8208h-.03678C90.71126,41.33392,90.72605,40.84416,90.72605,40.34879ZM67.938,31.58537a10.5287,10.5287,0,0,1,1.64022-2.19976c.0381-.03824.07657-.07491.115-.1119.14945-.14461.30111-.27787.45417-.403.051-.0415.10165-.08513.153-.12441a5.83623,5.83623,0,0,1,.50341-.34643c.02913-.01781.05779-.04035.087-.05743v-.00022a3.82152,3.82152,0,0,1,1.93-.57706c3.31763,0,7.02827,5.38126,7.02827,12.5836,0,.501-.02191.99081-.05647,1.473a18.969,18.969,0,0,1-.80075,4.28641c-.02032.06509-.03806.13307-.059.19746-.08033.24723-.16877.48445-.25781.72076-.03655.09688-.071.19665-.109.29166-.08464.212-.1753.41511-.26651.61733-.04971.1101-.09818.222-.14974.32907-.08844.18393-.18124.36011-.27473.5349-.06134.11448-.12238.22937-.18574.33976-.09121.15918-.18537.31194-.28053.46242-.07221.11408-.14494.22687-.21926.33578-.093.13639-.18766.268-.28366.39611q-.12354.1647-.25014.31988c-.09349.11482-.1878.22672-.28351.33364-.09209.10279-.18552.20008-.27949.29539-.09269.09408-.18552.18717-.27979.27377-.10139.093-.20407.17807-.307.26224-.09073.07424-.18124.14963-.273.21679-.11024.08062-.22166.1507-.33312.22089-.08719.05495-.174.11337-.26179.1618-.12042.06635-.24158.11935-.3627.17312-.08044.03574-.16059.07742-.24121.10748a3.78461,3.78461,0,0,1-.40976.11931c-.066.01652-.13211.04124-.19806.05381a3.23923,3.23923,0,0,1-.60527.06016l-.01564-.00155a3.228,3.228,0,0,1-.62213-.06421c-.054-.01085-.10821-.03379-.16232-.04729a3.81359,3.81359,0,0,1-.48256-.14579c-.04828-.019-.09612-.04788-.14436-.0689a4.693,4.693,0,0,1-.50167-.24844c-.03386-.0198-.06712-.04614-.10091-.0669a5.83168,5.83168,0,0,1-.53866-.3707c-.01844-.01439-.03637-.03209-.05481-.04681a7.23311,7.23311,0,0,1-.56983-.50554l-.01656-.01752a10.498,10.498,0,0,1-1.67537-2.23922,17.8728,17.8728,0,0,1-2.14315-8.76011A17.86205,17.86205,0,0,1,67.938,31.58537Z"/><path class="cls-1" d="M151.99141,33.26717c-.718-8.93929-10.82239-8.50921-15.53786-3.89174a.62657.62657,0,0,1-.86052-.001l-4.912-4.55077a.62251.62251,0,0,1-.07506-.83378c9.34083-12.0487,31.43484-8.611,31.43484,8.01723V58.85951a.62634.62634,0,0,1-.40838.58944c-5.093,1.869-9.486,3.07867-14.70167,3.07867-24.05936,0-23.80415-29.58494-2.04043-29.58494a17.66,17.66,0,0,1,6.23923.953A.62941.62941,0,0,0,151.99141,33.26717Zm-.30008,9.53715a13.9891,13.9891,0,0,0-5.35566-.765c-9.18191.25459-8.58684,11.39165.42514,11.39165a19.1018,19.1018,0,0,0,4.93052-.59507Z"/><path class="cls-1" d="M45.56355,90.02914,49.427,99.91623H47.97261l-1.07984-2.97715H42.7106l-1.10777,2.97715H40.25965l3.85-9.88709Zm.91375,5.80218L44.82937,91.2202h-.02744l-1.67586,4.61112Z"/><path class="cls-1" d="M62.51221,99.189a4.05141,4.05141,0,0,1-2.88039.94865,4.48523,4.48523,0,0,1-2.98413-.90676,3.5785,3.5785,0,0,1-1.07335-2.88737V90.02914h1.31575v6.31441a2.68411,2.68411,0,0,0,.70626,2.015,2.80592,2.80592,0,0,0,2.03547.6853,2.53614,2.53614,0,0,0,1.91777-.6853,2.80342,2.80342,0,0,0,.65788-2.015V90.02914h1.31525v6.31441A3.72005,3.72005,0,0,1,62.51221,99.189Z"/><path class="cls-1" d="M67.70489,90.02914l5.20665,8.01771H72.939V90.02914H74.1854v9.88709H72.74545L67.5802,91.98182h-.02793v7.93441H66.30635V90.02914Z"/><path class="cls-1" d="M83.83757,90.02914V91.1369h-5.5114v3.14324h5.13732v1.10777H78.32617v3.42056H83.879v1.10776h-6.868V90.02914Z"/><path class="cls-1" d="M85.26355,90.02914h1.5786l2.46492,3.86346,2.57564-3.86346h1.46788l-3.26844,4.80514,3.47592,5.08195H91.95154L89.2931,95.83132l-2.74173,4.08491H85.08349l3.434-5.08195Z"/><path class="cls-1" d="M94.26433,91.1369V90.02914h7.90648V91.1369H98.87545v8.77933H97.55969V91.1369Z"/><path class="cls-1" d="M114.47419,91.42769a3.057,3.057,0,0,0-1.79307-.5262,3.20637,3.20637,0,0,0-1.51626.33267,2.98365,2.98365,0,0,0-1.03869.8928,3.858,3.858,0,0,0-.60251,1.28084,5.73252,5.73252,0,0,0-.194,1.49581,6.40509,6.40509,0,0,0,.194,1.59905,3.82651,3.82651,0,0,0,.60251,1.31575,2.97366,2.97366,0,0,0,1.04567.89329,3.25432,3.25432,0,0,0,1.52324.33218,2.93391,2.93391,0,0,0,1.15615-.21447,2.6234,2.6234,0,0,0,.87234-.59553,2.73683,2.73683,0,0,0,.57459-.90726,3.77282,3.77282,0,0,0,.24938-1.13519h1.31525a4.49155,4.49155,0,0,1-1.28782,2.90782,4.16653,4.16653,0,0,1-2.99062,1.03843,4.77056,4.77056,0,0,1-2.00829-.39452,3.94785,3.94785,0,0,1-1.42648-1.08682,4.66942,4.66942,0,0,1-.85139-1.634,6.96394,6.96394,0,0,1-.2838-2.022,6.583,6.583,0,0,1,.30474-2.0285,4.88334,4.88334,0,0,1,.8928-1.65491,4.16677,4.16677,0,0,1,1.46788-1.11475,4.73347,4.73347,0,0,1,2.01527-.40849,5.07881,5.07881,0,0,1,1.46788.208,3.94975,3.94975,0,0,1,1.23246.609,3.43014,3.43014,0,0,1,.89977,1.004,3.67937,3.67937,0,0,1,.47084,1.39157h-1.31525A2.44905,2.44905,0,0,0,114.47419,91.42769Z"/><path class="cls-1" d="M118.93318,93.02724a4.90742,4.90742,0,0,1,.8933-1.65492,4.36039,4.36039,0,0,1,1.48134-1.14916,5.17192,5.17192,0,0,1,4.12681,0,4.36526,4.36526,0,0,1,1.48135,1.14916,4.9074,4.9074,0,0,1,.89329,1.65492,6.50426,6.50426,0,0,1,0,3.89089,4.89794,4.89794,0,0,1-.89329,1.65492,4.28053,4.28053,0,0,1-1.48135,1.14218,5.25045,5.25045,0,0,1-4.12681,0,4.27586,4.27586,0,0,1-1.48134-1.14218,4.898,4.898,0,0,1-.8933-1.65492,6.50426,6.50426,0,0,1,0-3.89089Zm1.21151,3.42a3.99436,3.99436,0,0,0,.6095,1.30877,3.11113,3.11113,0,0,0,1.06636.9347,3.58134,3.58134,0,0,0,3.10135,0,3.11576,3.11576,0,0,0,1.06637-.9347,4.01494,4.01494,0,0,0,.60949-1.30877,5.71494,5.71494,0,0,0,0-2.94921,4.01975,4.01975,0,0,0-.60949-1.30877,3.11576,3.11576,0,0,0-1.06637-.9347,3.58134,3.58134,0,0,0-3.10135,0,3.11113,3.11113,0,0,0-1.06636.9347,3.99912,3.99912,0,0,0-.6095,1.30877,5.70071,5.70071,0,0,0,0,2.94921Z"/><path class="cls-1" d="M132.23385,90.02914l3.11581,8.30849,3.12927-8.30849h1.80056v9.88709h-1.24643V91.691h-.02793l-3.08788,8.22519h-1.12173L131.70765,91.691h-.02744v8.22519h-1.24642V90.02914Z"/><path class="cls-1" d="M147.49318,90.02914a3.0718,3.0718,0,0,1,2.26441.7686,3.41181,3.41181,0,0,1,0,4.31335,3.011,3.011,0,0,1-2.26441.76162h-3.01855v4.04352h-1.31525V90.02914Zm-.44291,4.73581a2.349,2.349,0,0,0,1.64095-.45687,1.73809,1.73809,0,0,0,.51922-1.35715,1.7174,1.7174,0,0,0-.51922-1.35017,2.41957,2.41957,0,0,0-1.64095-.46386h-2.57564V94.765Z"/><path class="cls-1" d="M155.94033,90.02914l3.86346,9.88709h-1.45441l-1.07984-2.97715h-4.18217l-1.10777,2.97715h-1.34318l3.85-9.88709Zm.91374,5.80218-1.64793-4.61112h-.02743l-1.67587,4.61112Z"/><path class="cls-1" d="M162.84977,90.02914l5.20665,8.01771h.02743V90.02914h1.24642v9.88709h-1.43994l-5.16525-7.93441h-.02793v7.93441h-1.24593V90.02914Z"/><path class="cls-1" d="M176.24021,99.91623h-1.31575V95.87271l-3.82157-5.84357h1.56464l2.96319,4.70838,2.89435-4.70838h1.49531l-3.78017,5.84357Z"/></svg>